<svg xmlns="http://www.w3.org/2000/svg" version="1.1" xmlns:xlink="http://www.w3.org/1999/xlink" xmlns:svgjs="http://svgjs.dev/svgjs" viewBox="0 0 16.49153590317205 4.980059193121909"><g transform="matrix(1,0,0,1,0.7279327825903543,0.8093139105315552)"><rect width="16.49153590317205" height="16.49153590317205" x="-0.7279327825903543" y="-6.565052265556625" fill="#000000"></rect><g><path d=" M 5.33687744140625 0.3164999999999999 C 5.33687744140625 0.33299999999999985 5.35037744140625 0.34499999999999986 5.36237744140625 0.34499999999999986 C 5.3803774414062495 0.34499999999999986 5.4973774414062495 0.26549999999999985 5.5213774414062495 0.24749999999999983 C 5.53337744140625 0.23849999999999982 5.53787744140625 0.23099999999999987 5.53787744140625 0.2084999999999999 L 5.53787744140625 0.05249999999999977 C 5.53787744140625 0.01649999999999996 5.52287744140625 0.0014999999999998348 5.48687744140625 0.0014999999999998348 L 4.979877441406249 0.0014999999999998348 C 4.9588774414062495 0.0014999999999998348 4.94687744140625 0.013499999999999845 4.94687744140625 0.026999999999999913 C 4.94687744140625 0.058499999999999774 5.01137744140625 0.09299999999999997 5.01137744140625 0.1529999999999999 L 5.01137744140625 0.9824999999999999 C 5.01137744140625 1.0425 4.94687744140625 1.077 4.94687744140625 1.1084999999999998 C 4.94687744140625 1.1219999999999999 4.9588774414062495 1.134 4.979877441406249 1.134 L 5.24387744140625 1.134 C 5.26487744140625 1.134 5.27687744140625 1.1219999999999999 5.27687744140625 1.1084999999999998 C 5.27687744140625 1.077 5.212377441406249 1.0425 5.212377441406249 0.9824999999999999 L 5.212377441406249 0.7545 L 5.38487744140625 0.6449999999999999 C 5.40737744140625 0.6314999999999998 5.41337744140625 0.6194999999999999 5.41337744140625 0.5939999999999999 L 5.41337744140625 0.45599999999999985 C 5.41337744140625 0.4394999999999999 5.4028774414062495 0.4244999999999999 5.38487744140625 0.4244999999999999 C 5.37287744140625 0.4244999999999999 5.35937744140625 0.4304999999999999 5.34587744140625 0.4394999999999999 L 5.212377441406249 0.5234999999999999 L 5.212377441406249 0.16649999999999987 L 5.33687744140625 0.16649999999999987 M 6.041908935546874 0.16649999999999987 C 6.056908935546875 0.16649999999999987 6.062908935546874 0.17249999999999988 6.062908935546874 0.18599999999999983 L 6.062908935546874 0.44099999999999984 C 6.062908935546874 0.4514999999999999 6.059908935546875 0.4634999999999999 6.026908935546874 0.4859999999999999 L 5.878408935546874 0.5879999999999999 L 5.878408935546874 0.16649999999999987 M 6.262408935546874 0.9989999999999999 C 6.251908935546874 0.9794999999999999 6.188908935546874 0.8204999999999999 6.127408935546875 0.6435 C 6.1964089355468746 0.5999999999999999 6.2639089355468744 0.5609999999999998 6.2639089355468744 0.49649999999999983 L 6.2639089355468744 0.1439999999999999 C 6.2639089355468744 0.04499999999999993 6.200908935546875 -2.220446049250313e-16 6.1004089355468745 -2.220446049250313e-16 L 5.645908935546874 0.0014999999999998348 C 5.624908935546874 0.0014999999999998348 5.612908935546875 0.013499999999999845 5.612908935546875 0.026999999999999913 C 5.612908935546875 0.058499999999999774 5.677408935546874 0.09299999999999997 5.677408935546874 0.1529999999999999 L 5.677408935546874 0.9824999999999999 C 5.677408935546874 1.0425 5.612908935546875 1.077 5.612908935546875 1.1084999999999998 C 5.612908935546875 1.1219999999999999 5.624908935546874 1.134 5.645908935546874 1.134 L 5.909908935546874 1.134 C 5.930908935546874 1.134 5.942908935546875 1.1219999999999999 5.942908935546875 1.1084999999999998 C 5.942908935546875 1.077 5.878408935546874 1.0425 5.878408935546874 0.9824999999999999 L 5.878408935546874 0.8144999999999999 C 5.878408935546874 0.8054999999999999 5.879908935546874 0.8009999999999999 5.884408935546874 0.7979999999999998 L 5.939908935546875 0.7634999999999998 C 5.939908935546875 0.7634999999999998 6.044908935546874 1.0319999999999998 6.044908935546874 1.0485 C 6.044908935546874 1.0815 6.010408935546875 1.0859999999999999 6.010408935546875 1.1084999999999998 C 6.010408935546875 1.1219999999999999 6.023908935546874 1.134 6.044908935546874 1.134 L 6.304408935546874 1.134 C 6.320908935546875 1.134 6.3359089355468745 1.1219999999999999 6.3359089355468745 1.1084999999999998 C 6.3359089355468745 1.0755 6.307408935546874 1.0784999999999998 6.262408935546874 0.9989999999999999 M 6.953944824218749 1.134 C 6.989944824218749 1.134 7.004944824218749 1.119 7.004944824218749 1.083 L 7.004944824218749 0.7665 C 7.004944824218749 0.7499999999999999 6.991444824218749 0.7379999999999999 6.979444824218749 0.7379999999999999 C 6.961444824218749 0.7379999999999999 6.8444448242187494 0.8174999999999999 6.820444824218749 0.8354999999999999 C 6.808444824218749 0.8444999999999999 6.803944824218749 0.8519999999999999 6.803944824218749 0.8744999999999998 L 6.803944824218749 0.9689999999999999 L 6.6809448242187495 0.9689999999999999 C 6.670444824218749 0.9689999999999999 6.661444824218749 0.9614999999999999 6.661444824218749 0.9509999999999998 L 6.661444824218749 0.7829999999999999 L 6.833944824218749 0.6734999999999999 C 6.856444824218749 0.6599999999999999 6.862444824218749 0.6479999999999999 6.862444824218749 0.6224999999999998 L 6.862444824218749 0.48449999999999993 C 6.862444824218749 0.46799999999999986 6.851944824218749 0.45299999999999985 6.833944824218749 0.45299999999999985 C 6.8219448242187495 0.45299999999999985 6.808444824218749 0.45899999999999985 6.794944824218749 0.46799999999999986 L 6.661444824218749 0.5519999999999999 L 6.661444824218749 0.1844999999999999 C 6.661444824218749 0.17549999999999988 6.670444824218749 0.16649999999999987 6.6809448242187495 0.16649999999999987 L 6.803944824218749 0.16649999999999987 L 6.803944824218749 0.3314999999999999 C 6.803944824218749 0.34799999999999986 6.817444824218749 0.3599999999999999 6.829444824218749 0.3599999999999999 C 6.847444824218749 0.3599999999999999 6.964444824218749 0.28049999999999986 6.98844482421875 0.26249999999999984 C 7.000444824218749 0.25349999999999984 7.004944824218749 0.24599999999999989 7.004944824218749 0.22349999999999992 L 7.004944824218749 0.05249999999999977 C 7.004944824218749 0.01649999999999996 6.989944824218749 0.0014999999999998348 6.953944824218749 0.0014999999999998348 L 6.428944824218749 0.0014999999999998348 C 6.407944824218749 0.0014999999999998348 6.395944824218749 0.013499999999999845 6.395944824218749 0.026999999999999913 C 6.395944824218749 0.058499999999999774 6.460444824218749 0.09299999999999997 6.460444824218749 0.1529999999999999 L 6.460444824218749 0.9824999999999999 C 6.460444824218749 1.0425 6.395944824218749 1.077 6.395944824218749 1.1084999999999998 C 6.395944824218749 1.1219999999999999 6.407944824218749 1.134 6.428944824218749 1.134 M 7.667949951171874 1.134 C 7.703949951171873 1.134 7.718949951171874 1.119 7.718949951171874 1.083 L 7.718949951171874 0.7665 C 7.718949951171874 0.7499999999999999 7.7054499511718735 0.7379999999999999 7.693449951171874 0.7379999999999999 C 7.675449951171874 0.7379999999999999 7.558449951171874 0.8174999999999999 7.534449951171874 0.8354999999999999 C 7.522449951171874 0.8444999999999999 7.5179499511718735 0.8519999999999999 7.5179499511718735 0.8744999999999998 L 7.5179499511718735 0.9689999999999999 L 7.394949951171874 0.9689999999999999 C 7.384449951171874 0.9689999999999999 7.375449951171873 0.9614999999999999 7.375449951171873 0.9509999999999998 L 7.375449951171873 0.7829999999999999 L 7.547949951171874 0.6734999999999999 C 7.570449951171874 0.6599999999999999 7.576449951171874 0.6479999999999999 7.576449951171874 0.6224999999999998 L 7.576449951171874 0.48449999999999993 C 7.576449951171874 0.46799999999999986 7.5659499511718735 0.45299999999999985 7.547949951171874 0.45299999999999985 C 7.535949951171874 0.45299999999999985 7.522449951171874 0.45899999999999985 7.508949951171874 0.46799999999999986 L 7.375449951171873 0.5519999999999999 L 7.375449951171873 0.1844999999999999 C 7.375449951171873 0.17549999999999988 7.384449951171874 0.16649999999999987 7.394949951171874 0.16649999999999987 L 7.5179499511718735 0.16649999999999987 L 7.5179499511718735 0.3314999999999999 C 7.5179499511718735 0.34799999999999986 7.531449951171874 0.3599999999999999 7.543449951171874 0.3599999999999999 C 7.561449951171873 0.3599999999999999 7.678449951171874 0.28049999999999986 7.702449951171873 0.26249999999999984 C 7.714449951171874 0.25349999999999984 7.718949951171874 0.24599999999999989 7.718949951171874 0.22349999999999992 L 7.718949951171874 0.05249999999999977 C 7.718949951171874 0.01649999999999996 7.703949951171873 0.0014999999999998348 7.667949951171874 0.0014999999999998348 L 7.1429499511718735 0.0014999999999998348 C 7.121949951171874 0.0014999999999998348 7.109949951171874 0.013499999999999845 7.109949951171874 0.026999999999999913 C 7.109949951171874 0.058499999999999774 7.174449951171874 0.09299999999999997 7.174449951171874 0.1529999999999999 L 7.174449951171874 0.9824999999999999 C 7.174449951171874 1.0425 7.109949951171874 1.077 7.109949951171874 1.1084999999999998 C 7.109949951171874 1.1219999999999999 7.121949951171874 1.134 7.1429499511718735 1.134 M 8.089455078124999 0.9689999999999999 L 8.089455078124999 0.1529999999999999 C 8.089455078124999 0.09299999999999997 8.153955078124998 0.058499999999999774 8.153955078124998 0.026999999999999913 C 8.153955078124998 0.013499999999999845 8.141955078125 0.0014999999999998348 8.120955078124998 0.0014999999999998348 L 7.856955078124998 0.0014999999999998348 C 7.835955078124998 0.0014999999999998348 7.823955078124999 0.013499999999999845 7.823955078124999 0.026999999999999913 C 7.823955078124999 0.058499999999999774 7.8884550781249985 0.09299999999999997 7.8884550781249985 0.1529999999999999 L 7.8884550781249985 0.9824999999999999 C 7.8884550781249985 1.0425 7.823955078124999 1.077 7.823955078124999 1.1084999999999998 C 7.823955078124999 1.1219999999999999 7.835955078124998 1.134 7.856955078124998 1.134 L 8.330955078125 1.134 C 8.366955078124999 1.134 8.381955078124998 1.119 8.381955078124998 1.083 L 8.381955078124998 0.7665 C 8.381955078124998 0.7499999999999999 8.368455078124999 0.7379999999999999 8.356455078124998 0.7379999999999999 C 8.338455078124998 0.7379999999999999 8.221455078124999 0.8174999999999999 8.197455078124998 0.8354999999999999 C 8.185455078124999 0.8444999999999999 8.180955078124999 0.8519999999999999 8.180955078124999 0.8744999999999998 L 8.180955078124999 0.9689999999999999 M 8.76292138671875 0.7304999999999999 L 8.861921386718748 0.30899999999999983 L 8.93392138671875 0.6389999999999999 M 9.21442138671875 0.9494999999999999 C 9.197921386718749 0.8895 9.013421386718749 0.1529999999999999 9.013421386718749 0.10649999999999982 C 9.013421386718749 0.07799999999999985 9.052421386718748 0.046499999999999764 9.052421386718748 0.02849999999999997 C 9.052421386718748 0.011999999999999789 9.04042138671875 0.0014999999999998348 9.019421386718749 0.0014999999999998348 L 8.70892138671875 0.0014999999999998348 C 8.687921386718749 0.0014999999999998348 8.675921386718748 0.011999999999999789 8.675921386718748 0.02849999999999997 C 8.675921386718748 0.046499999999999764 8.71492138671875 0.07799999999999985 8.71492138671875 0.10649999999999982 C 8.71492138671875 0.1529999999999999 8.51092138671875 0.954 8.498921386718749 1.0005 C 8.485421386718748 1.053 8.42692138671875 1.083 8.42692138671875 1.107 C 8.42692138671875 1.1235 8.438921386718748 1.134 8.459921386718749 1.134 L 8.726921386718749 1.134 C 8.75092138671875 1.134 8.76142138671875 1.1219999999999999 8.76142138671875 1.107 C 8.76142138671875 1.083 8.70742138671875 1.0635 8.70742138671875 1.005 L 8.70742138671875 0.9644999999999999 L 8.97892138671875 0.8174999999999999 C 8.97892138671875 0.8174999999999999 9.02842138671875 1.0199999999999998 9.02842138671875 1.0305 C 9.02842138671875 1.0665 8.98942138671875 1.083 8.98942138671875 1.107 C 8.98942138671875 1.1219999999999999 8.999921386718748 1.134 9.023921386718749 1.134 L 9.26992138671875 1.134 C 9.290921386718749 1.134 9.302921386718749 1.1235 9.302921386718749 1.107 C 9.302921386718749 1.083 9.238421386718748 1.041 9.21442138671875 0.9494999999999999 M 9.643427246093749 1.134 C 9.66742724609375 1.134 9.685427246093749 1.119 9.685427246093749 1.0964999999999998 C 9.685427246093749 1.0619999999999998 9.62092724609375 1.0259999999999998 9.62092724609375 0.9944999999999999 L 9.62092724609375 0.5009999999999999 L 9.923927246093749 1.0919999999999999 C 9.93742724609375 1.119 9.94792724609375 1.134 9.98842724609375 1.134 L 10.08292724609375 1.134 C 10.115927246093749 1.134 10.13692724609375 1.113 10.13692724609375 1.0815 L 10.13692724609375 0.1529999999999999 C 10.13692724609375 0.09299999999999997 10.20142724609375 0.058499999999999774 10.20142724609375 0.026999999999999913 C 10.20142724609375 0.013499999999999845 10.18942724609375 0.0014999999999998348 10.16842724609375 0.0014999999999998348 L 9.91192724609375 0.0014999999999998348 C 9.89092724609375 0.0014999999999998348 9.878927246093749 0.013499999999999845 9.878927246093749 0.026999999999999913 C 9.878927246093749 0.058499999999999774 9.94342724609375 0.09299999999999997 9.94342724609375 0.1529999999999999 L 9.94342724609375 0.6839999999999999 L 9.641927246093749 0.04799999999999982 C 9.63292724609375 0.026999999999999913 9.62242724609375 0.0014999999999998348 9.57592724609375 0.0014999999999998348 L 9.39592724609375 0.0014999999999998348 C 9.37492724609375 0.0014999999999998348 9.362927246093749 0.013499999999999845 9.362927246093749 0.026999999999999913 C 9.362927246093749 0.058499999999999774 9.42742724609375 0.09299999999999997 9.42742724609375 0.1529999999999999 L 9.42742724609375 0.9824999999999999 C 9.42742724609375 1.0425 9.362927246093749 1.077 9.362927246093749 1.1084999999999998 C 9.362927246093749 1.1219999999999999 9.37492724609375 1.134 9.39592724609375 1.134 M 10.877925781250001 0.7169999999999999 C 10.877925781250001 0.7004999999999999 10.86442578125 0.6884999999999999 10.85242578125 0.6884999999999999 C 10.83442578125 0.6884999999999999 10.71742578125 0.7679999999999999 10.69342578125 0.7859999999999998 C 10.68142578125 0.7949999999999999 10.67692578125 0.8024999999999999 10.67692578125 0.825 L 10.67692578125 0.9494999999999999 C 10.67692578125 0.9599999999999999 10.66792578125 0.9689999999999999 10.65742578125 0.9689999999999999 L 10.52692578125 0.9689999999999999 C 10.51642578125 0.9689999999999999 10.50742578125 0.9599999999999999 10.50742578125 0.9494999999999999 L 10.50742578125 0.18599999999999983 C 10.50742578125 0.17549999999999988 10.51642578125 0.16649999999999987 10.52692578125 0.16649999999999987 L 10.642425781250001 0.16649999999999987 C 10.65292578125 0.16649999999999987 10.66192578125 0.17549999999999988 10.66192578125 0.18599999999999983 L 10.66192578125 0.37649999999999983 C 10.66192578125 0.3929999999999999 10.67542578125 0.4049999999999999 10.68742578125 0.4049999999999999 C 10.70542578125 0.4049999999999999 10.82242578125 0.3254999999999999 10.84642578125 0.3074999999999999 C 10.85842578125 0.2984999999999999 10.86292578125 0.2909999999999999 10.86292578125 0.26849999999999985 L 10.86292578125 0.12449999999999983 C 10.86292578125 0.06299999999999994 10.80292578125 0.0014999999999998348 10.71442578125 0.0014999999999998348 L 10.44892578125 0.0014999999999998348 C 10.36792578125 0.0014999999999998348 10.30642578125 0.041999999999999815 10.30642578125 0.11699999999999977 L 10.30642578125 1.0185 C 10.30642578125 1.0935 10.36792578125 1.134 10.44892578125 1.134 L 10.72942578125 1.134 C 10.82092578125 1.134 10.877925781250001 1.0695 10.877925781250001 1.0125 M 11.495879638671875 1.134 C 11.531879638671876 1.134 11.546879638671875 1.119 11.546879638671875 1.083 L 11.546879638671875 0.7665 C 11.546879638671875 0.7499999999999999 11.533379638671876 0.7379999999999999 11.521379638671876 0.7379999999999999 C 11.503379638671875 0.7379999999999999 11.386379638671876 0.8174999999999999 11.362379638671875 0.8354999999999999 C 11.350379638671876 0.8444999999999999 11.345879638671876 0.8519999999999999 11.345879638671876 0.8744999999999998 L 11.345879638671876 0.9689999999999999 L 11.222879638671875 0.9689999999999999 C 11.212379638671877 0.9689999999999999 11.203379638671876 0.9614999999999999 11.203379638671876 0.9509999999999998 L 11.203379638671876 0.7829999999999999 L 11.375879638671876 0.6734999999999999 C 11.398379638671877 0.6599999999999999 11.404379638671875 0.6479999999999999 11.404379638671875 0.6224999999999998 L 11.404379638671875 0.48449999999999993 C 11.404379638671875 0.46799999999999986 11.393879638671876 0.45299999999999985 11.375879638671876 0.45299999999999985 C 11.363879638671875 0.45299999999999985 11.350379638671876 0.45899999999999985 11.336879638671876 0.46799999999999986 L 11.203379638671876 0.5519999999999999 L 11.203379638671876 0.1844999999999999 C 11.203379638671876 0.17549999999999988 11.212379638671877 0.16649999999999987 11.222879638671875 0.16649999999999987 L 11.345879638671876 0.16649999999999987 L 11.345879638671876 0.3314999999999999 C 11.345879638671876 0.34799999999999986 11.359379638671875 0.3599999999999999 11.371379638671876 0.3599999999999999 C 11.389379638671876 0.3599999999999999 11.506379638671875 0.28049999999999986 11.530379638671876 0.26249999999999984 C 11.542379638671875 0.25349999999999984 11.546879638671875 0.24599999999999989 11.546879638671875 0.22349999999999992 L 11.546879638671875 0.05249999999999977 C 11.546879638671875 0.01649999999999996 11.531879638671876 0.0014999999999998348 11.495879638671875 0.0014999999999998348 L 10.970879638671876 0.0014999999999998348 C 10.949879638671876 0.0014999999999998348 10.937879638671875 0.013499999999999845 10.937879638671875 0.026999999999999913 C 10.937879638671875 0.058499999999999774 11.002379638671876 0.09299999999999997 11.002379638671876 0.1529999999999999 L 11.002379638671876 0.9824999999999999 C 11.002379638671876 1.0425 10.937879638671875 1.077 10.937879638671875 1.1084999999999998 C 10.937879638671875 1.1219999999999999 10.949879638671876 1.134 10.970879638671876 1.134 M 6.920906738281249 2.1630000000000003 C 6.920906738281249 2.1465 6.907406738281249 2.1345 6.895406738281249 2.1345 C 6.877406738281249 2.1345 6.760406738281249 2.214 6.736406738281249 2.232 C 6.724406738281249 2.241 6.719906738281249 2.2485 6.719906738281249 2.271 L 6.719906738281249 2.3955 C 6.719906738281249 2.406 6.710906738281249 2.415 6.700406738281249 2.415 L 6.569906738281249 2.415 C 6.559406738281249 2.415 6.550406738281249 2.406 6.550406738281249 2.3955 L 6.550406738281249 1.6320000000000001 C 6.550406738281249 1.6215000000000002 6.559406738281249 1.6125 6.569906738281249 1.6125 L 6.685406738281249 1.6125 C 6.695906738281249 1.6125 6.704906738281249 1.6215000000000002 6.704906738281249 1.6320000000000001 L 6.704906738281249 1.8225 C 6.704906738281249 1.839 6.718406738281249 1.851 6.730406738281249 1.851 C 6.748406738281249 1.851 6.86540673828125 1.7715 6.889406738281249 1.7535 C 6.901406738281249 1.7445 6.905906738281249 1.737 6.905906738281249 1.7145000000000001 L 6.905906738281249 1.5705 C 6.905906738281249 1.5090000000000001 6.845906738281249 1.4475 6.757406738281249 1.4475 L 6.491906738281249 1.4475 C 6.410906738281249 1.4475 6.349406738281249 1.488 6.349406738281249 1.563 L 6.349406738281249 2.4645 C 6.349406738281249 2.5395 6.410906738281249 2.58 6.491906738281249 2.58 L 6.772406738281249 2.58 C 6.8639067382812495 2.58 6.920906738281249 2.5155000000000003 6.920906738281249 2.4585 M 7.183389892578123 2.58 L 7.478889892578124 2.58 C 7.570389892578124 2.58 7.627389892578123 2.5125 7.627389892578123 2.451 L 7.627389892578123 1.5765 C 7.627389892578123 1.5105 7.568889892578124 1.4475 7.478889892578124 1.4475 L 7.183389892578123 1.4475 C 7.103889892578124 1.4475 7.040889892578123 1.4895 7.040889892578123 1.569 L 7.040889892578123 2.4585 C 7.040889892578123 2.5365 7.102389892578124 2.58 7.183389892578123 2.58 M 7.241889892578124 2.4045 L 7.241889892578124 1.623 C 7.241889892578124 1.617 7.246389892578124 1.6125 7.252389892578123 1.6125 L 7.415889892578123 1.6125 C 7.421889892578124 1.6125 7.426389892578124 1.617 7.426389892578124 1.623 L 7.426389892578124 2.4045 C 7.426389892578124 2.4090000000000003 7.421889892578124 2.415 7.415889892578123 2.415 L 7.252389892578123 2.415 C 7.246389892578124 2.415 7.241889892578124 2.4090000000000003 7.241889892578124 2.4045 M 8.012902343749998 2.58 C 8.036902343749999 2.58 8.054902343749998 2.565 8.054902343749998 2.5425 C 8.054902343749998 2.508 7.990402343749999 2.472 7.990402343749999 2.4405 L 7.990402343749999 1.947 L 8.293402343749998 2.5380000000000003 C 8.306902343749998 2.565 8.317402343749999 2.58 8.357902343749998 2.58 L 8.452402343749998 2.58 C 8.485402343749998 2.58 8.506402343749999 2.559 8.506402343749999 2.5275 L 8.506402343749999 1.5990000000000002 C 8.506402343749999 1.5390000000000001 8.57090234375 1.5045 8.57090234375 1.473 C 8.57090234375 1.4595 8.558902343749999 1.4475 8.537902343749998 1.4475 L 8.281402343749999 1.4475 C 8.260402343749998 1.4475 8.248402343749998 1.4595 8.248402343749998 1.473 C 8.248402343749998 1.5045 8.312902343749998 1.5390000000000001 8.312902343749998 1.5990000000000002 L 8.312902343749998 2.13 L 8.011402343749998 1.494 C 8.00240234375 1.473 7.991902343749999 1.4475 7.945402343749999 1.4475 L 7.765402343749998 1.4475 C 7.744402343749998 1.4475 7.732402343749999 1.4595 7.732402343749999 1.473 C 7.732402343749999 1.5045 7.7969023437499985 1.5390000000000001 7.7969023437499985 1.5990000000000002 L 7.7969023437499985 2.4285 C 7.7969023437499985 2.4885 7.732402343749999 2.523 7.732402343749999 2.5545 C 7.732402343749999 2.568 7.744402343749998 2.58 7.765402343749998 2.58 M 8.926400878906248 2.58 C 8.95040087890625 2.58 8.968400878906248 2.565 8.968400878906248 2.5425 C 8.968400878906248 2.508 8.90390087890625 2.472 8.90390087890625 2.4405 L 8.90390087890625 1.947 L 9.206900878906248 2.5380000000000003 C 9.220400878906249 2.565 9.23090087890625 2.58 9.271400878906249 2.58 L 9.365900878906249 2.58 C 9.398900878906248 2.58 9.41990087890625 2.559 9.41990087890625 2.5275 L 9.41990087890625 1.5990000000000002 C 9.41990087890625 1.5390000000000001 9.48440087890625 1.5045 9.48440087890625 1.473 C 9.48440087890625 1.4595 9.47240087890625 1.4475 9.451400878906249 1.4475 L 9.19490087890625 1.4475 C 9.173900878906249 1.4475 9.161900878906248 1.4595 9.161900878906248 1.473 C 9.161900878906248 1.5045 9.226400878906249 1.5390000000000001 9.226400878906249 1.5990000000000002 L 9.226400878906249 2.13 L 8.924900878906248 1.494 C 8.91590087890625 1.473 8.90540087890625 1.4475 8.85890087890625 1.4475 L 8.67890087890625 1.4475 C 8.657900878906249 1.4475 8.645900878906248 1.4595 8.645900878906248 1.473 C 8.645900878906248 1.5045 8.710400878906249 1.5390000000000001 8.710400878906249 1.5990000000000002 L 8.710400878906249 2.4285 C 8.710400878906249 2.4885 8.645900878906248 2.523 8.645900878906248 2.5545 C 8.645900878906248 2.568 8.657900878906249 2.58 8.67890087890625 2.58 M 10.117399414062499 2.58 C 10.1533994140625 2.58 10.168399414062499 2.565 10.168399414062499 2.529 L 10.168399414062499 2.2125 C 10.168399414062499 2.196 10.1548994140625 2.184 10.1428994140625 2.184 C 10.124899414062499 2.184 10.0078994140625 2.2635 9.983899414062499 2.2815000000000003 C 9.9718994140625 2.2905 9.9673994140625 2.298 9.9673994140625 2.3205 L 9.9673994140625 2.415 L 9.844399414062499 2.415 C 9.8338994140625 2.415 9.8248994140625 2.4075 9.8248994140625 2.3970000000000002 L 9.8248994140625 2.229 L 9.9973994140625 2.1195 C 10.0198994140625 2.106 10.025899414062499 2.0940000000000003 10.025899414062499 2.0685000000000002 L 10.025899414062499 1.9305 C 10.025899414062499 1.9140000000000001 10.0153994140625 1.899 9.9973994140625 1.899 C 9.985399414062499 1.899 9.9718994140625 1.905 9.9583994140625 1.9140000000000001 L 9.8248994140625 1.9980000000000002 L 9.8248994140625 1.6305 C 9.8248994140625 1.6215000000000002 9.8338994140625 1.6125 9.844399414062499 1.6125 L 9.9673994140625 1.6125 L 9.9673994140625 1.7775 C 9.9673994140625 1.794 9.980899414062499 1.806 9.9928994140625 1.806 C 10.0108994140625 1.806 10.1278994140625 1.7265000000000001 10.1518994140625 1.7085 C 10.163899414062499 1.6995 10.168399414062499 1.6920000000000002 10.168399414062499 1.6695000000000002 L 10.168399414062499 1.4985 C 10.168399414062499 1.4625000000000001 10.1533994140625 1.4475 10.117399414062499 1.4475 L 9.5923994140625 1.4475 C 9.5713994140625 1.4475 9.559399414062499 1.4595 9.559399414062499 1.473 C 9.559399414062499 1.5045 9.6238994140625 1.5390000000000001 9.6238994140625 1.5990000000000002 L 9.6238994140625 2.4285 C 9.6238994140625 2.4885 9.559399414062499 2.523 9.559399414062499 2.5545 C 9.559399414062499 2.568 9.5713994140625 2.58 9.5923994140625 2.58 M 10.874904541015626 2.1630000000000003 C 10.874904541015626 2.1465 10.861404541015625 2.1345 10.849404541015625 2.1345 C 10.831404541015624 2.1345 10.714404541015625 2.214 10.690404541015624 2.232 C 10.678404541015626 2.241 10.673904541015625 2.2485 10.673904541015625 2.271 L 10.673904541015625 2.3955 C 10.673904541015625 2.406 10.664904541015625 2.415 10.654404541015625 2.415 L 10.523904541015625 2.415 C 10.513404541015625 2.415 10.504404541015624 2.406 10.504404541015624 2.3955 L 10.504404541015624 1.6320000000000001 C 10.504404541015624 1.6215000000000002 10.513404541015625 1.6125 10.523904541015625 1.6125 L 10.639404541015626 1.6125 C 10.649904541015625 1.6125 10.658904541015625 1.6215000000000002 10.658904541015625 1.6320000000000001 L 10.658904541015625 1.8225 C 10.658904541015625 1.839 10.672404541015625 1.851 10.684404541015626 1.851 C 10.702404541015625 1.851 10.819404541015626 1.7715 10.843404541015625 1.7535 C 10.855404541015625 1.7445 10.859904541015625 1.737 10.859904541015625 1.7145000000000001 L 10.859904541015625 1.5705 C 10.859904541015625 1.5090000000000001 10.799904541015625 1.4475 10.711404541015625 1.4475 L 10.445904541015626 1.4475 C 10.364904541015624 1.4475 10.303404541015626 1.488 10.303404541015626 1.563 L 10.303404541015626 2.4645 C 10.303404541015626 2.5395 10.364904541015624 2.58 10.445904541015626 2.58 L 10.726404541015626 2.58 C 10.817904541015626 2.58 10.874904541015626 2.5155000000000003 10.874904541015626 2.4585 M 11.371387695312501 1.6125 C 11.464387695312501 1.6125 11.464387695312501 1.6215000000000002 11.4943876953125 1.6545 C 11.519887695312502 1.6844999999999999 11.5318876953125 1.6965 11.551387695312501 1.6965 C 11.5753876953125 1.6965 11.5918876953125 1.6800000000000002 11.5918876953125 1.6560000000000001 L 11.5918876953125 1.473 C 11.5918876953125 1.449 11.5753876953125 1.434 11.551387695312501 1.434 C 11.5423876953125 1.434 11.5273876953125 1.4355 11.5018876953125 1.4385000000000001 C 11.471887695312502 1.443 11.4328876953125 1.4475 11.408887695312501 1.4475 L 11.132887695312501 1.4475 C 11.0263876953125 1.4475 11.0068876953125 1.434 10.9828876953125 1.434 C 10.9588876953125 1.434 10.949887695312501 1.4445000000000001 10.949887695312501 1.4685000000000001 L 10.949887695312501 1.665 C 10.949887695312501 1.683 10.9603876953125 1.6965 10.9768876953125 1.6965 C 10.997887695312501 1.6965 11.0113876953125 1.6815000000000002 11.044387695312501 1.653 C 11.0773876953125 1.6245 11.086387695312501 1.6125 11.1703876953125 1.6125 L 11.1703876953125 2.4285 C 11.1703876953125 2.4885 11.1058876953125 2.523 11.1058876953125 2.5545 C 11.1058876953125 2.568 11.1178876953125 2.58 11.138887695312501 2.58 L 11.4028876953125 2.58 C 11.423887695312501 2.58 11.4358876953125 2.568 11.4358876953125 2.5545 C 11.4358876953125 2.523 11.371387695312501 2.4885 11.371387695312501 2.4285" fill="#fffdfa" fill-rule="nonzero"></path></g><g><path d=" M 0.02875 3.4428125 Q 0.020625 3.4428125 0.014375 3.4390625000000004 Q 0.008125 3.4353125 0.008125 3.4253125000000004 Q 0.008125 3.4240625000000002 0.0090625 3.4190625000000003 Q 0.01 3.4140625000000004 0.014375 3.3915625 L 0.018125 3.3915625 Q 0.02875 3.3946875000000003 0.035 3.3959375 Q 0.04125 3.3971875000000002 0.05 3.3971875000000002 Q 0.06375 3.3971875000000002 0.0734375 3.3909375 Q 0.083125 3.3846875 0.0884375 3.3646875 Q 0.09375 3.3446875 0.09375 3.3028125000000004 L 0.09375 2.9571875000000003 L 0.043750000000000004 2.9321875000000004 L 0.043750000000000004 2.9221875 L 0.2 2.9221875 L 0.2 2.9321875000000004 L 0.15 2.9571875000000003 L 0.15 3.1846875000000003 Q 0.15 3.2546875 0.13875 3.3106250000000004 Q 0.1275 3.3665625 0.100625 3.3965625000000004 Q 0.0825 3.4165625000000004 0.07125000000000001 3.4265625 Q 0.06 3.4365625000000004 0.050625 3.4396875000000002 Q 0.04125 3.4428125 0.02875 3.4428125 M 0.5018841552734375 3.3409375000000003 Q 0.4568841552734375 3.3409375000000003 0.41907165527343754 3.325 Q 0.38125915527343757 3.3090625000000005 0.35313415527343756 3.280625 Q 0.32500915527343754 3.2521875000000002 0.30938415527343754 3.2134375000000004 Q 0.29375915527343754 3.1746875 0.29375915527343754 3.1284375000000004 Q 0.29375915527343754 3.0821875000000003 0.30938415527343754 3.0434375000000005 Q 0.32500915527343754 3.0046875 0.35313415527343756 2.9762500000000003 Q 0.38125915527343757 2.9478125000000004 0.41907165527343754 2.9318750000000002 Q 0.4568841552734375 2.9159375 0.5018841552734375 2.9159375 Q 0.5468841552734376 2.9159375 0.5850091552734376 2.9318750000000002 Q 0.6231341552734375 2.9478125000000004 0.6512591552734375 2.9762500000000003 Q 0.6793841552734375 3.0046875 0.6950091552734375 3.0434375000000005 Q 0.7106341552734375 3.0821875000000003 0.7106341552734375 3.1284375000000004 Q 0.7106341552734375 3.1746875 0.6950091552734375 3.2134375000000004 Q 0.6793841552734375 3.2521875000000002 0.6512591552734375 3.280625 Q 0.6231341552734375 3.3090625000000005 0.5850091552734376 3.325 Q 0.5468841552734376 3.3409375000000003 0.5018841552734375 3.3409375000000003 M 0.5150091552734375 3.3096875000000003 Q 0.5550091552734375 3.3096875000000003 0.5853216552734375 3.2896875000000003 Q 0.6156341552734376 3.2696875000000003 0.6328216552734376 3.2334375000000004 Q 0.6500091552734375 3.1971875 0.6500091552734375 3.1478125 Q 0.6500091552734375 3.0871875 0.6287591552734375 3.041875 Q 0.6075091552734375 2.9965625000000005 0.5715716552734376 2.9715625 Q 0.5356341552734376 2.9465625 0.49125915527343755 2.9465625 Q 0.4512591552734375 2.9465625 0.42032165527343757 2.96625 Q 0.3893841552734375 2.9859375000000004 0.37188415527343754 3.0221875000000002 Q 0.35438415527343753 3.0584375 0.35438415527343753 3.1078125 Q 0.35438415527343753 3.1684375000000005 0.3759466552734375 3.2140625000000003 Q 0.39750915527343755 3.2596875 0.43375915527343756 3.2846875000000004 Q 0.47000915527343756 3.3096875000000003 0.5150091552734375 3.3096875000000003 M 0.8043884277343749 3.3346875000000002 L 0.8043884277343749 3.3246875000000005 L 0.854388427734375 3.2996875 L 0.854388427734375 2.9571875000000003 L 0.8043884277343749 2.9321875000000004 L 0.8043884277343749 2.9221875 L 0.9606384277343749 2.9221875 L 0.9606384277343749 2.9321875000000004 L 0.910638427734375 2.9571875000000003 L 0.910638427734375 3.2996875 L 0.9606384277343749 3.3246875000000005 L 0.9606384277343749 3.3346875000000002 L 0.8043884277343749 3.3346875000000002 M 1.0481475830078126 3.3346875000000002 L 1.0481475830078126 3.3246875000000005 L 1.0981475830078125 3.2996875 L 1.0981475830078125 2.9584375 L 1.0487725830078125 2.9321875000000004 L 1.0487725830078125 2.9221875 L 1.1406475830078127 2.9221875 L 1.3793975830078127 3.2221875000000004 L 1.3793975830078127 2.9559375 L 1.3168975830078127 2.9321875000000004 L 1.3168975830078127 2.9221875 L 1.4725225830078126 2.9221875 L 1.4725225830078126 2.9321875000000004 L 1.4231475830078126 2.9565625000000004 L 1.4231475830078126 3.3378125 L 1.4000225830078126 3.3378125 L 1.1418975830078126 3.0121875000000005 L 1.1418975830078126 3.3003125000000004 L 1.2043975830078126 3.3246875000000005 L 1.2043975830078126 3.3346875000000002 L 1.0481475830078126 3.3346875000000002 M 1.7987796020507814 3.3346875000000002 L 1.7987796020507814 3.3246875000000005 L 1.8612796020507814 3.2996875 L 1.8612796020507814 2.9565625000000004 L 1.7594046020507812 2.9565625000000004 L 1.7169046020507812 3.0484375000000004 L 1.7069046020507812 3.0484375000000004 L 1.7069046020507812 2.9221875 L 2.071904602050781 2.9221875 L 2.071904602050781 3.0484375000000004 L 2.0619046020507814 3.0484375000000004 L 2.0194046020507814 2.9565625000000004 L 1.9175296020507813 2.9565625000000004 L 1.9175296020507813 3.2996875 L 1.9800296020507813 3.3246875000000005 L 1.9800296020507813 3.3346875000000002 L 1.7987796020507814 3.3346875000000002 M 2.14691162109375 3.3346875000000002 L 2.14691162109375 3.3246875000000005 L 2.1969116210937503 3.2996875 L 2.1969116210937503 2.9571875000000003 L 2.14691162109375 2.9321875000000004 L 2.14691162109375 2.9221875 L 2.30316162109375 2.9221875 L 2.30316162109375 2.9321875000000004 L 2.25316162109375 2.9571875000000003 L 2.25316162109375 3.1046875000000003 L 2.46566162109375 3.1046875000000003 L 2.46566162109375 2.9571875000000003 L 2.4156616210937503 2.9321875000000004 L 2.4156616210937503 2.9221875 L 2.5719116210937503 2.9221875 L 2.5719116210937503 2.9321875000000004 L 2.52191162109375 2.9571875000000003 L 2.52191162109375 3.2996875 L 2.5719116210937503 3.3246875000000005 L 2.5719116210937503 3.3346875000000002 L 2.4156616210937503 3.3346875000000002 L 2.4156616210937503 3.3246875000000005 L 2.46566162109375 3.2996875 L 2.46566162109375 3.1390625 L 2.25316162109375 3.1390625 L 2.25316162109375 3.2996875 L 2.30316162109375 3.3246875000000005 L 2.30316162109375 3.3346875000000002 L 2.14691162109375 3.3346875000000002 M 2.659410095214844 3.3346875000000002 L 2.659410095214844 3.3246875000000005 L 2.709410095214844 3.2996875 L 2.709410095214844 2.9571875000000003 L 2.659410095214844 2.9321875000000004 L 2.659410095214844 2.9221875 L 2.965035095214844 2.9221875 L 2.965035095214844 3.0296875 L 2.955035095214844 3.0296875 L 2.916285095214844 2.9565625000000004 L 2.765660095214844 2.9565625000000004 L 2.765660095214844 3.1046875000000003 L 2.8719100952148438 3.1046875000000003 L 2.9031600952148438 3.0528125000000004 L 2.913160095214844 3.0528125000000004 L 2.913160095214844 3.1896875000000002 L 2.9031600952148438 3.1896875000000002 L 2.8719100952148438 3.1390625 L 2.765660095214844 3.1390625 L 2.765660095214844 3.3003125000000004 L 2.933785095214844 3.3003125000000004 L 2.9725350952148437 3.2209375000000002 L 2.982535095214844 3.2209375000000002 L 2.982535095214844 3.3346875000000002 L 2.659410095214844 3.3346875000000002 M 3.2356460571289065 3.3346875000000002 L 3.2356460571289065 3.3246875000000005 L 3.285646057128907 3.2996875 L 3.285646057128907 2.9571875000000003 L 3.2356460571289065 2.9321875000000004 L 3.2356460571289065 2.9221875 L 3.5350210571289065 2.9221875 L 3.5350210571289065 3.0296875 L 3.5250210571289067 3.0296875 L 3.4862710571289064 2.9565625000000004 L 3.3418960571289067 2.9565625000000004 L 3.3418960571289067 3.1046875000000003 L 3.441896057128907 3.1046875000000003 L 3.473146057128907 3.0528125000000004 L 3.4831460571289066 3.0528125000000004 L 3.4831460571289066 3.1896875000000002 L 3.473146057128907 3.1896875000000002 L 3.441896057128907 3.1390625 L 3.3418960571289067 3.1390625 L 3.3418960571289067 3.2996875 L 3.3981460571289066 3.3246875000000005 L 3.3981460571289066 3.3346875000000002 L 3.2356460571289065 3.3346875000000002 M 3.6256546020507816 3.3346875000000002 L 3.6256546020507816 3.3246875000000005 L 3.675654602050782 3.2996875 L 3.675654602050782 2.9571875000000003 L 3.6256546020507816 2.9321875000000004 L 3.6256546020507816 2.9221875 L 3.7869046020507815 2.9221875 Q 3.8525296020507818 2.9221875 3.8903421020507816 2.9493750000000003 Q 3.928154602050782 2.9765625 3.928154602050782 3.0240625000000003 Q 3.928154602050782 3.0590625000000005 3.9044046020507817 3.086875 Q 3.8806546020507815 3.1146875 3.841279602050782 3.1290625000000003 L 3.9600296020507817 3.3021875 L 4.001279602050782 3.3246875000000005 L 4.001279602050782 3.3346875000000002 L 3.9112796020507816 3.3346875000000002 L 3.7900296020507818 3.1453125 L 3.731904602050782 3.1453125 L 3.731904602050782 3.2990625000000002 L 3.778779602050782 3.3246875000000005 L 3.778779602050782 3.3346875000000002 L 3.6256546020507816 3.3346875000000002 M 3.7725296020507817 2.9565625000000004 L 3.731904602050782 2.9565625000000004 L 3.731904602050782 3.1109375000000004 L 3.776279602050782 3.1109375000000004 Q 3.8156546020507816 3.1109375000000004 3.8415921020507815 3.08875 Q 3.867529602050782 3.0665625000000003 3.867529602050782 3.0321875 Q 3.867529602050782 2.9971875000000003 3.8419046020507817 2.976875 Q 3.816279602050782 2.9565625000000004 3.7725296020507817 2.9565625000000004 M 4.04503631591797 3.3346875000000002 L 4.04503631591797 3.3246875000000005 L 4.0950363159179695 3.2996875 L 4.0950363159179695 2.9571875000000003 L 4.04503631591797 2.9321875000000004 L 4.04503631591797 2.9221875 L 4.35066131591797 2.9221875 L 4.35066131591797 3.0296875 L 4.340661315917969 3.0296875 L 4.30191131591797 2.9565625000000004 L 4.151286315917969 2.9565625000000004 L 4.151286315917969 3.1046875000000003 L 4.257536315917969 3.1046875000000003 L 4.288786315917969 3.0528125000000004 L 4.298786315917969 3.0528125000000004 L 4.298786315917969 3.1896875000000002 L 4.288786315917969 3.1896875000000002 L 4.257536315917969 3.1390625 L 4.151286315917969 3.1390625 L 4.151286315917969 3.3003125000000004 L 4.31941131591797 3.3003125000000004 L 4.358161315917969 3.2209375000000002 L 4.36816131591797 3.2209375000000002 L 4.36816131591797 3.3346875000000002 L 4.04503631591797 3.3346875000000002 M 4.458772277832032 3.3346875000000002 L 4.458772277832032 3.3246875000000005 L 4.508772277832032 3.2996875 L 4.508772277832032 2.9571875000000003 L 4.458772277832032 2.9321875000000004 L 4.458772277832032 2.9221875 L 4.764397277832032 2.9221875 L 4.764397277832032 3.0296875 L 4.754397277832031 3.0296875 L 4.715647277832032 2.9565625000000004 L 4.565022277832031 2.9565625000000004 L 4.565022277832031 3.1046875000000003 L 4.671272277832031 3.1046875000000003 L 4.702522277832031 3.0528125000000004 L 4.712522277832031 3.0528125000000004 L 4.712522277832031 3.1896875000000002 L 4.702522277832031 3.1896875000000002 L 4.671272277832031 3.1390625 L 4.565022277832031 3.1390625 L 4.565022277832031 3.3003125000000004 L 4.733147277832032 3.3003125000000004 L 4.771897277832031 3.2209375000000002 L 4.781897277832032 3.2209375000000002 L 4.781897277832032 3.3346875000000002 L 4.458772277832032 3.3346875000000002 M 4.872508239746094 3.3346875000000002 L 4.872508239746094 3.3246875000000005 L 4.922508239746094 3.2996875 L 4.922508239746094 2.9571875000000003 L 4.872508239746094 2.9321875000000004 L 4.872508239746094 2.9221875 L 5.035008239746094 2.9221875 L 5.035008239746094 2.9321875000000004 L 4.978758239746093 2.9571875000000003 L 4.978758239746093 3.3003125000000004 L 5.130633239746094 3.3003125000000004 L 5.173133239746093 3.1959375000000003 L 5.183133239746094 3.1959375000000003 L 5.183133239746094 3.3346875000000002 L 4.872508239746094 3.3346875000000002 M 5.241257934570312 3.3346875000000002 L 5.241257934570312 3.3246875000000005 L 5.281257934570312 3.3040625 L 5.441257934570312 2.9190625000000003 L 5.469382934570312 2.9190625000000003 L 5.626882934570312 3.3021875 L 5.668757934570312 3.3246875000000005 L 5.668757934570312 3.3346875000000002 L 5.513757934570312 3.3346875000000002 L 5.513757934570312 3.3246875000000005 L 5.568757934570312 3.3034375000000002 L 5.521882934570312 3.1878125 L 5.370007934570312 3.1878125 L 5.323757934570312 3.3034375000000002 L 5.376257934570312 3.3246875000000005 L 5.376257934570312 3.3346875000000002 L 5.241257934570312 3.3346875000000002 M 5.384382934570312 3.1534375000000003 L 5.508132934570312 3.1534375000000003 L 5.446257934570312 2.9996875000000003 L 5.384382934570312 3.1534375000000003 M 5.733132934570311 3.3346875000000002 L 5.733132934570311 3.3246875000000005 L 5.783132934570312 3.2996875 L 5.783132934570312 2.9584375 L 5.733757934570312 2.9321875000000004 L 5.733757934570312 2.9221875 L 5.8256329345703115 2.9221875 L 6.064382934570312 3.2221875000000004 L 6.064382934570312 2.9559375 L 6.001882934570312 2.9321875000000004 L 6.001882934570312 2.9221875 L 6.157507934570312 2.9221875 L 6.157507934570312 2.9321875000000004 L 6.108132934570311 2.9565625000000004 L 6.108132934570311 3.3378125 L 6.085007934570312 3.3378125 L 5.826882934570311 3.0121875000000005 L 5.826882934570311 3.3003125000000004 L 5.889382934570311 3.3246875000000005 L 5.889382934570311 3.3346875000000002 L 5.733132934570311 3.3346875000000002 M 6.45126495361328 3.3409375000000003 Q 6.38751495361328 3.3409375000000003 6.34126495361328 3.3146875000000002 Q 6.29501495361328 3.2884375 6.27001495361328 3.243125 Q 6.24501495361328 3.1978125000000004 6.24501495361328 3.1396875000000004 Q 6.24501495361328 3.0953125000000004 6.26220245361328 3.055 Q 6.27938995361328 3.0146875000000004 6.30907745361328 2.9834375000000004 Q 6.33876495361328 2.9521875000000004 6.37782745361328 2.9340625000000005 Q 6.41688995361328 2.9159375 6.46063995361328 2.9159375 Q 6.49188995361328 2.9159375 6.51376495361328 2.9200000000000004 Q 6.53563995361328 2.9240625000000002 6.55282745361328 2.930625 Q 6.57001495361328 2.9371875000000003 6.5875149536132795 2.9459375000000003 L 6.59063995361328 3.0553125000000003 L 6.57938995361328 3.0553125000000003 L 6.54126495361328 2.9790625000000004 Q 6.51751495361328 2.9621875 6.49970245361328 2.9546875000000004 Q 6.48188995361328 2.9471875 6.45938995361328 2.9471875 Q 6.41438995361328 2.9471875 6.37907745361328 2.9696875 Q 6.34376495361328 2.9921875 6.32345245361328 3.03125 Q 6.30313995361328 3.0703125 6.30313995361328 3.1209375 Q 6.30313995361328 3.1803125000000003 6.32282745361328 3.2225 Q 6.34251495361328 3.2646875000000004 6.37595245361328 3.286875 Q 6.40938995361328 3.3090625000000005 6.45001495361328 3.3090625000000005 Q 6.48438995361328 3.3090625000000005 6.50782745361328 3.2993750000000004 Q 6.53126495361328 3.2896875000000003 6.5493899536132805 3.2778125000000005 L 6.58688995361328 3.2109375000000004 L 6.59751495361328 3.2109375000000004 L 6.59063995361328 3.3103125 Q 6.57251495361328 3.3196875 6.55345245361328 3.3265625 Q 6.53438995361328 3.3334375 6.51001495361328 3.3371875 Q 6.48563995361328 3.3409375000000003 6.45126495361328 3.3409375000000003 M 6.701898193359374 3.3346875000000002 L 6.701898193359374 3.3246875000000005 L 6.751898193359374 3.2996875 L 6.751898193359374 2.9571875000000003 L 6.701898193359374 2.9321875000000004 L 6.701898193359374 2.9221875 L 7.007523193359374 2.9221875 L 7.007523193359374 3.0296875 L 6.997523193359373 3.0296875 L 6.958773193359374 2.9565625000000004 L 6.808148193359373 2.9565625000000004 L 6.808148193359373 3.1046875000000003 L 6.914398193359373 3.1046875000000003 L 6.945648193359373 3.0528125000000004 L 6.955648193359373 3.0528125000000004 L 6.955648193359373 3.1896875000000002 L 6.945648193359373 3.1896875000000002 L 6.914398193359373 3.1390625 L 6.808148193359373 3.1390625 L 6.808148193359373 3.3003125000000004 L 6.976273193359374 3.3003125000000004 L 7.015023193359373 3.2209375000000002 L 7.025023193359374 3.2209375000000002 L 7.025023193359374 3.3346875000000002 L 6.701898193359374 3.3346875000000002 M 7.2781341552734355 3.3346875000000002 L 7.2781341552734355 3.3246875000000005 L 7.328134155273435 3.2996875 L 7.328134155273435 2.9571875000000003 L 7.2781341552734355 2.9321875000000004 L 7.2781341552734355 2.9221875 L 7.439384155273435 2.9221875 Q 7.505009155273435 2.9221875 7.5428216552734355 2.9493750000000003 Q 7.580634155273435 2.9765625 7.580634155273435 3.0240625000000003 Q 7.580634155273435 3.0590625000000005 7.556884155273435 3.086875 Q 7.533134155273435 3.1146875 7.493759155273435 3.1290625000000003 L 7.612509155273435 3.3021875 L 7.653759155273435 3.3246875000000005 L 7.653759155273435 3.3346875000000002 L 7.563759155273435 3.3346875000000002 L 7.442509155273435 3.1453125 L 7.384384155273435 3.1453125 L 7.384384155273435 3.2990625000000002 L 7.431259155273435 3.3246875000000005 L 7.431259155273435 3.3346875000000002 L 7.2781341552734355 3.3346875000000002 M 7.425009155273435 2.9565625000000004 L 7.384384155273435 2.9565625000000004 L 7.384384155273435 3.1109375000000004 L 7.428759155273435 3.1109375000000004 Q 7.468134155273435 3.1109375000000004 7.494071655273435 3.08875 Q 7.520009155273435 3.0665625000000003 7.520009155273435 3.0321875 Q 7.520009155273435 2.9971875000000003 7.494384155273435 2.976875 Q 7.468759155273435 2.9565625000000004 7.425009155273435 2.9565625000000004 M 7.697515869140623 3.3346875000000002 L 7.697515869140623 3.3246875000000005 L 7.7475158691406225 3.2996875 L 7.7475158691406225 2.9571875000000003 L 7.697515869140623 2.9321875000000004 L 7.697515869140623 2.9221875 L 8.003140869140623 2.9221875 L 8.003140869140623 3.0296875 L 7.993140869140622 3.0296875 L 7.954390869140623 2.9565625000000004 L 7.803765869140622 2.9565625000000004 L 7.803765869140622 3.1046875000000003 L 7.910015869140622 3.1046875000000003 L 7.941265869140622 3.0528125000000004 L 7.951265869140622 3.0528125000000004 L 7.951265869140622 3.1896875000000002 L 7.941265869140622 3.1896875000000002 L 7.910015869140622 3.1390625 L 7.803765869140622 3.1390625 L 7.803765869140622 3.3003125000000004 L 7.971890869140623 3.3003125000000004 L 8.010640869140623 3.2209375000000002 L 8.020640869140623 3.2209375000000002 L 8.020640869140623 3.3346875000000002 L 7.697515869140623 3.3346875000000002 M 8.28687072753906 3.3378125 L 8.12937072753906 2.9540625 L 8.08624572753906 2.9321875000000004 L 8.08624572753906 2.9221875 L 8.24249572753906 2.9221875 L 8.24249572753906 2.9321875000000004 L 8.188745727539061 2.9553125000000002 L 8.188745727539061 2.9584375 L 8.305620727539061 3.2446875000000004 L 8.30874572753906 3.2446875000000004 L 8.424995727539061 2.9559375 L 8.424995727539061 2.9534375 L 8.37374572753906 2.9321875000000004 L 8.37374572753906 2.9221875 L 8.504995727539061 2.9221875 L 8.504995727539061 2.9321875000000004 L 8.46937072753906 2.9509375 L 8.30874572753906 3.3378125 L 8.28687072753906 3.3378125 M 8.76622131347656 3.3409375000000003 Q 8.72122131347656 3.3409375000000003 8.68340881347656 3.325 Q 8.64559631347656 3.3090625000000005 8.61747131347656 3.280625 Q 8.58934631347656 3.2521875000000002 8.57372131347656 3.2134375000000004 Q 8.55809631347656 3.1746875 8.55809631347656 3.1284375000000004 Q 8.55809631347656 3.0821875000000003 8.57372131347656 3.0434375000000005 Q 8.58934631347656 3.0046875 8.61747131347656 2.9762500000000003 Q 8.64559631347656 2.9478125000000004 8.68340881347656 2.9318750000000002 Q 8.72122131347656 2.9159375 8.76622131347656 2.9159375 Q 8.81122131347656 2.9159375 8.84934631347656 2.9318750000000002 Q 8.88747131347656 2.9478125000000004 8.91559631347656 2.9762500000000003 Q 8.94372131347656 3.0046875 8.95934631347656 3.0434375000000005 Q 8.97497131347656 3.0821875000000003 8.97497131347656 3.1284375000000004 Q 8.97497131347656 3.1746875 8.95934631347656 3.2134375000000004 Q 8.94372131347656 3.2521875000000002 8.91559631347656 3.280625 Q 8.88747131347656 3.3090625000000005 8.84934631347656 3.325 Q 8.81122131347656 3.3409375000000003 8.76622131347656 3.3409375000000003 M 8.77934631347656 3.3096875000000003 Q 8.81934631347656 3.3096875000000003 8.84965881347656 3.2896875000000003 Q 8.87997131347656 3.2696875000000003 8.89715881347656 3.2334375000000004 Q 8.91434631347656 3.1971875 8.91434631347656 3.1478125 Q 8.91434631347656 3.0871875 8.89309631347656 3.041875 Q 8.87184631347656 2.9965625000000005 8.83590881347656 2.9715625 Q 8.79997131347656 2.9465625 8.75559631347656 2.9465625 Q 8.71559631347656 2.9465625 8.68465881347656 2.96625 Q 8.65372131347656 2.9859375000000004 8.63622131347656 3.0221875000000002 Q 8.61872131347656 3.0584375 8.61872131347656 3.1078125 Q 8.61872131347656 3.1684375000000005 8.64028381347656 3.2140625000000003 Q 8.66184631347656 3.2596875 8.69809631347656 3.2846875000000004 Q 8.73434631347656 3.3096875000000003 8.77934631347656 3.3096875000000003 M 9.065600585937498 3.3346875000000002 L 9.065600585937498 3.3246875000000005 L 9.115600585937496 3.2996875 L 9.115600585937496 2.9571875000000003 L 9.065600585937498 2.9321875000000004 L 9.065600585937498 2.9221875 L 9.228100585937497 2.9221875 L 9.228100585937497 2.9321875000000004 L 9.171850585937497 2.9571875000000003 L 9.171850585937497 3.3003125000000004 L 9.323725585937497 3.3003125000000004 L 9.366225585937498 3.1959375000000003 L 9.376225585937497 3.1959375000000003 L 9.376225585937497 3.3346875000000002 L 9.065600585937498 3.3346875000000002 M 9.660594177246091 3.3409375000000003 Q 9.613719177246091 3.3409375000000003 9.57715667724609 3.3234375000000003 Q 9.54059417724609 3.3059375 9.51934417724609 3.269375 Q 9.49809417724609 3.2328125 9.49809417724609 3.1746875 L 9.49809417724609 2.9571875000000003 L 9.448094177246091 2.9321875000000004 L 9.448094177246091 2.9221875 L 9.604344177246091 2.9221875 L 9.604344177246091 2.9321875000000004 L 9.55434417724609 2.9571875000000003 L 9.55434417724609 3.1653125 Q 9.55434417724609 3.2171875 9.570594177246091 3.2478125 Q 9.58684417724609 3.2784375000000003 9.61465667724609 3.2915625000000004 Q 9.64246917724609 3.3046875000000004 9.67684417724609 3.3046875000000004 Q 9.70434417724609 3.3046875000000004 9.72778167724609 3.2928125 Q 9.75121917724609 3.2809375000000003 9.76528167724609 3.2553125 Q 9.77934417724609 3.2296875000000003 9.77934417724609 3.1871875000000003 L 9.77934417724609 2.9559375 L 9.71684417724609 2.9321875000000004 L 9.71684417724609 2.9221875 L 9.87246917724609 2.9221875 L 9.87246917724609 2.9321875000000004 L 9.823094177246091 2.9565625000000004 L 9.823094177246091 3.1746875 Q 9.823094177246091 3.2328125 9.80184417724609 3.269375 Q 9.78059417724609 3.3059375 9.74403167724609 3.3234375000000003 Q 9.707469177246091 3.3409375000000003 9.660594177246091 3.3409375000000003 M 10.039357299804683 3.3346875000000002 L 10.039357299804683 3.3246875000000005 L 10.101857299804683 3.2996875 L 10.101857299804683 2.9565625000000004 L 9.999982299804683 2.9565625000000004 L 9.957482299804685 3.0484375000000004 L 9.947482299804683 3.0484375000000004 L 9.947482299804683 2.9221875 L 10.312482299804683 2.9221875 L 10.312482299804683 3.0484375000000004 L 10.302482299804684 3.0484375000000004 L 10.259982299804683 2.9565625000000004 L 10.158107299804684 2.9565625000000004 L 10.158107299804684 3.2996875 L 10.220607299804684 3.3246875000000005 L 10.220607299804684 3.3346875000000002 L 10.039357299804683 3.3346875000000002 M 10.390614318847652 3.3346875000000002 L 10.390614318847652 3.3246875000000005 L 10.440614318847652 3.2996875 L 10.440614318847652 2.9571875000000003 L 10.390614318847652 2.9321875000000004 L 10.390614318847652 2.9221875 L 10.546864318847652 2.9221875 L 10.546864318847652 2.9321875000000004 L 10.496864318847653 2.9571875000000003 L 10.496864318847653 3.2996875 L 10.546864318847652 3.3246875000000005 L 10.546864318847652 3.3346875000000002 L 10.390614318847652 3.3346875000000002 M 10.84874847412109 3.3409375000000003 Q 10.80374847412109 3.3409375000000003 10.76593597412109 3.325 Q 10.72812347412109 3.3090625000000005 10.69999847412109 3.280625 Q 10.671873474121089 3.2521875000000002 10.656248474121089 3.2134375000000004 Q 10.640623474121089 3.1746875 10.640623474121089 3.1284375000000004 Q 10.640623474121089 3.0821875000000003 10.656248474121089 3.0434375000000005 Q 10.671873474121089 3.0046875 10.69999847412109 2.9762500000000003 Q 10.72812347412109 2.9478125000000004 10.76593597412109 2.9318750000000002 Q 10.80374847412109 2.9159375 10.84874847412109 2.9159375 Q 10.89374847412109 2.9159375 10.93187347412109 2.9318750000000002 Q 10.96999847412109 2.9478125000000004 10.998123474121089 2.9762500000000003 Q 11.02624847412109 3.0046875 11.04187347412109 3.0434375000000005 Q 11.05749847412109 3.0821875000000003 11.05749847412109 3.1284375000000004 Q 11.05749847412109 3.1746875 11.04187347412109 3.2134375000000004 Q 11.02624847412109 3.2521875000000002 10.998123474121089 3.280625 Q 10.96999847412109 3.3090625000000005 10.93187347412109 3.325 Q 10.89374847412109 3.3409375000000003 10.84874847412109 3.3409375000000003 M 10.86187347412109 3.3096875000000003 Q 10.90187347412109 3.3096875000000003 10.93218597412109 3.2896875000000003 Q 10.96249847412109 3.2696875000000003 10.97968597412109 3.2334375000000004 Q 10.99687347412109 3.1971875 10.99687347412109 3.1478125 Q 10.99687347412109 3.0871875 10.97562347412109 3.041875 Q 10.95437347412109 2.9965625000000005 10.91843597412109 2.9715625 Q 10.882498474121089 2.9465625 10.83812347412109 2.9465625 Q 10.79812347412109 2.9465625 10.76718597412109 2.96625 Q 10.736248474121089 2.9859375000000004 10.718748474121089 3.0221875000000002 Q 10.701248474121089 3.0584375 10.701248474121089 3.1078125 Q 10.701248474121089 3.1684375000000005 10.722810974121089 3.2140625000000003 Q 10.74437347412109 3.2596875 10.78062347412109 3.2846875000000004 Q 10.81687347412109 3.3096875000000003 10.86187347412109 3.3096875000000003 M 11.145002746582026 3.3346875000000002 L 11.145002746582026 3.3246875000000005 L 11.195002746582027 3.2996875 L 11.195002746582027 2.9584375 L 11.145627746582027 2.9321875000000004 L 11.145627746582027 2.9221875 L 11.237502746582027 2.9221875 L 11.476252746582027 3.2221875000000004 L 11.476252746582027 2.9559375 L 11.413752746582027 2.9321875000000004 L 11.413752746582027 2.9221875 L 11.569377746582028 2.9221875 L 11.569377746582028 2.9321875000000004 L 11.520002746582026 2.9565625000000004 L 11.520002746582026 3.3378125 L 11.496877746582026 3.3378125 L 11.238752746582026 3.0121875000000005 L 11.238752746582026 3.3003125000000004 L 11.301252746582026 3.3246875000000005 L 11.301252746582026 3.3346875000000002 L 11.145002746582026 3.3346875000000002" fill="#b7b7a5" fill-rule="nonzero"></path></g><g clip-path="url(&quot;#SvgjsClipPath1003&quot;)"><g clip-path="url(&quot;#SvgjsClipPath1000&quot;)"><path d=" M 12.006884765625 0.7930393627528692 L 12.006884765625 2.541759192718117 L 13.52127755180817 3.416129203652649 C 13.594150132679305 3.3740391801486647 14.955599343409883 2.5879986524562435 15.035670337991341 2.541769288670025 L 15.035670337991341 0.7929787870414221 C 14.962646317841589 0.7508281878259911 13.60063173380417 -0.035565698183206845 13.52127755180817 -0.08138112794120111 Z M 13.436239348888032 1.7164958918635516 L 13.436239348888032 3.1706360370604485 L 12.891623319168932 2.856177422985467 L 12.891623319168932 1.4019867980290308 Z M 12.261958990577783 0.8421258809290202 L 12.806564924344977 0.5276167870944993 L 14.065873389623455 1.254717147548672 L 13.521237168000539 1.569175761623654 Z M 12.176940979561461 2.443576060413908 L 12.176940979561461 0.9893551476017481 L 12.721567105232468 1.30381376167673 L 12.721567105232468 2.757984194729351 Z M 14.86560402810297 1.8146689282158524 L 14.86560402810297 2.4435255806543688 L 13.606295562824494 3.1706360370604485 L 13.606295562824494 2.5417188089104847 Z M 13.606295562824492 2.345392928109699 L 13.606295562824492 1.7164454121040127 L 14.86560402810297 0.9893551476017481 L 14.86560402810297 1.6182521838478965 Z M 14.780586017086648 0.8421056890252048 L 14.235959891415641 1.1564936314368301 L 12.976641330185256 0.4294033669345657 L 13.521267455856263 0.11494475285958389 Z" fill="#ba8437" transform="matrix(1,0,0,1,0,0)" fill-rule="nonzero"></path></g></g></g><defs><clipPath id="SvgjsClipPath1003"><path d=" M 12.006884765625 -0.08138112794120111 h 3.028785572366343 v 3.4974497558824025 h -3.028785572366343 Z"></path></clipPath><clipPath id="SvgjsClipPath1000"><path d=" M 12.006884765625 -0.08138112794120111 L 15.035670337991341 -0.08138112794120111 L 15.035670337991341 3.4160686279412014 L 12.006884765625 3.4160686279412014 Z"></path></clipPath></defs></svg>